<svg id="图层_1" data-name="图层 1" xmlns="http://www.w3.org/2000/svg" viewBox="0 0 510.8 67.33"><defs><style>.cls-1{fill:#005bab;}</style></defs><path class="cls-1" d="M379.7,24.4V31h5.6l-5.1,11.8s-2,4.4.9,6.6a5.83,5.83,0,0,0,3.8,1.2h18.6V71.1s.2,2.1-2.7,2.3a13.59,13.59,0,0,1-4.5-.5h-.9v6.9s9.5,2.3,15.9-.6c0,0,4.6-1.3,4.6-8.2V50.7h21.4V43.9H415.9V35.2H403.5v8.7h-8.6s-2.5.3-1.8-1.8L398,31h39V24.3H400.8l2.9-6.3H391l-2.7,6.3h-8.6Z" transform="translate(-3.3 -14.77)"/><path class="cls-1" d="M387,54.9h11s-.6,10.9-8.2,23.6l-12.2-2.3C377.5,76.2,385.5,67,387,54.9Z" transform="translate(-3.3 -14.77)"/><path class="cls-1" d="M418.3,54.9h11s1.6,11.8,9.5,21.2l-12.2,2.3C426.5,78.5,420.4,70.6,418.3,54.9Z" transform="translate(-3.3 -14.77)"/><path class="cls-1" d="M448.4,24.5h7.8l2.3-6.5H468l-2.2,6.5H476V31H463.6l-5,14.7s-.6,1.7,1.2,1.7h2.4V38.2h9.6v9.1h4.3V54h-4.3v7.1l4.3-.6,1,7.1-5.2.8V80.8h-9.6v-11L449,71.7l-1-7.1,14.2-2.1V53.9h-9s-6.3,0-4.5-6.9l5.5-16h-5.6V24.5Z" transform="translate(-3.3 -14.77)"/><path class="cls-1" d="M488.6,30.8c-1.1,4.7-5.4,12.8-5.4,12.8l-9.7-2.4a48.78,48.78,0,0,0,8-23.3h9.8a41.14,41.14,0,0,1-1.1,6.5h19.1s5.6-.4,4.7,6.4l-1.6,10H501.2l1.4-8s.5-2-1.9-2Z" transform="translate(-3.3 -14.77)"/><path class="cls-1" d="M488.5,38.4h10.1l-.9,8.2h4.1s0,9.2,11.3,31.4l-10.7,2.3s-2.7-5.1-7.1-19.7c0,0-3,12.5-7,19.7L477.8,78S488.5,58.4,488.5,38.4Z" transform="translate(-3.3 -14.77)"/><polygon class="cls-1" points="61.6 65.93 44.8 65.93 16 22.93 16 65.93 0 65.93 0 3.33 20.8 3.33 45.7 39.13 45.7 3.33 61.6 3.33 61.6 65.93"/><path class="cls-1" d="M106.8,51c-.1-3.2-.9-5.6-2.5-7.2s-4.1-2.4-7.5-2.4A13.1,13.1,0,0,0,89,43.7c-2,1.5-3.2,4-3.4,7.4h21.2Zm16.5,8.9H85.7a10.49,10.49,0,0,0,4.6,8.5c2.8,2,7,3,12.4,3a29.07,29.07,0,0,0,10.1-1.8,30.6,30.6,0,0,0,7.7-3.8h1.8V78a60.31,60.31,0,0,1-10.5,3,60.83,60.83,0,0,1-10.9.9c-10.3,0-18.1-2.1-23.6-6.4s-8.2-10.3-8.2-18.2,2.6-14,7.8-18.5S89.2,32,98.2,32c8.3,0,14.6,2,18.7,5.8s6.3,9.5,6.3,16.8v5.3Z" transform="translate(-3.3 -14.77)"/><path class="cls-1" d="M178.9,80.7H162.4V75.5a50.86,50.86,0,0,1-8.3,4.9,22.23,22.23,0,0,1-9,1.7c-5.6,0-9.9-1.5-13-4.5s-4.5-7.4-4.5-13.3V33.4H144V56.9a49.75,49.75,0,0,0,.3,6,10,10,0,0,0,1.1,3.9,5.34,5.34,0,0,0,2.6,2.3,12.48,12.48,0,0,0,4.8.7,16.09,16.09,0,0,0,4.6-.7,23.35,23.35,0,0,0,4.9-2.1V33.4h16.5V80.7Z" transform="translate(-3.3 -14.77)"/><path class="cls-1" d="M231.1,65.7c0,4.9-2.4,8.8-7.1,11.8S212.8,82,204.6,82a58.61,58.61,0,0,1-12.4-1.2,54.85,54.85,0,0,1-8.9-2.6V65.8h1.5c.8.5,1.8,1.1,2.8,1.7a30.92,30.92,0,0,0,4.6,2,37,37,0,0,0,5.8,1.6,31.06,31.06,0,0,0,6.9.7,19,19,0,0,0,7.2-1,3.12,3.12,0,0,0,2.3-2.9,2.74,2.74,0,0,0-1.4-2.5,21.11,21.11,0,0,0-5.2-1.5c-1.2-.3-2.9-.5-5-.8a41.24,41.24,0,0,1-5.7-1.1c-4.7-1.1-8.1-2.9-10.4-5.2a12.57,12.57,0,0,1-3.4-8.8c0-4.5,2.3-8.3,7-11.3s11-4.5,19.1-4.5a56.2,56.2,0,0,1,11,1.1,47.57,47.57,0,0,1,8.2,2.3v12h-1.4a37.33,37.33,0,0,0-8.3-3.8,30.81,30.81,0,0,0-9.5-1.4,18.92,18.92,0,0,0-6.7,1c-1.8.7-2.7,1.6-2.7,2.8a3.09,3.09,0,0,0,1.2,2.6c.8.6,2.7,1.2,5.8,1.8q2.55.45,5.4.9c1.9.3,3.9.7,5.8,1.1,4.3,1,7.5,2.7,9.6,4.9A10.57,10.57,0,0,1,231.1,65.7Z" transform="translate(-3.3 -14.77)"/><path class="cls-1" d="M270.3,68.6a11.07,11.07,0,0,0,2.4-4.4,26.17,26.17,0,0,0,.8-7.1,27.52,27.52,0,0,0-.8-7,10.62,10.62,0,0,0-2.3-4.5,8.42,8.42,0,0,0-3.5-2.5,13.08,13.08,0,0,0-4.4-.7,13.3,13.3,0,0,0-4.2.6,8.48,8.48,0,0,0-3.5,2.4,12,12,0,0,0-2.4,4.5,24.31,24.31,0,0,0-.9,7.2,22.38,22.38,0,0,0,.8,6.7,11.7,11.7,0,0,0,2.3,4.6,9.16,9.16,0,0,0,3.5,2.4,13.67,13.67,0,0,0,4.7.7,12.51,12.51,0,0,0,4.3-.7,6.63,6.63,0,0,0,3.2-2.2ZM290.5,57c0,7.8-2.5,13.9-7.4,18.4s-11.8,6.7-20.7,6.7-15.8-2.2-20.7-6.7-7.4-10.6-7.4-18.4,2.5-14,7.4-18.4,11.8-6.7,20.6-6.7,15.8,2.3,20.7,6.7S290.5,49.3,290.5,57Z" transform="translate(-3.3 -14.77)"/><path class="cls-1" d="M315.6,33.3h19.2v-7l15.1-6.5h1.5V33.2h15.2V43.6H351.5V65s-.1,6.5,7,6.2a15,15,0,0,0,6.5-1.3h1.7V80.2a48.08,48.08,0,0,1-20.7.7s-7.5-1.1-9.9-7.7a20.75,20.75,0,0,1-1.2-6.3v-23H316.2V80.8H299.6V43.9h-7V33.4h7.1s-.9-10.2,5.7-14.8c0,0,7.3-6.1,26.2-2.9V26.4h-1.4s-11.3-3.5-13.9,1.9A9.55,9.55,0,0,0,315.6,33.3Z" transform="translate(-3.3 -14.77)"/></svg>