<?xml version="1.0" standalone="no"?><!DOCTYPE svg PUBLIC "-//W3C//DTD SVG 1.1//EN" "http://www.w3.org/Graphics/SVG/1.1/DTD/svg11.dtd"><svg t="1666837306247" class="icon" viewBox="0 0 1024 1024" version="1.1" xmlns="http://www.w3.org/2000/svg" p-id="7163" xmlns:xlink="http://www.w3.org/1999/xlink" width="64" height="64"><path d="M512 512m-512 0a512 512 0 1 0 1024 0 512 512 0 1 0-1024 0Z" fill="#2B2B2B" p-id="7164"></path><path d="M332.8 499.2c0-98.9696 80.2304-179.2 179.2-179.2s179.2 80.2304 179.2 179.2h51.2c0-127.2448-103.1552-230.4-230.4-230.4s-230.4 103.1552-230.4 230.4h51.2z m0 0c0-98.9696 80.2304-179.2 179.2-179.2s179.2 80.2304 179.2 179.2h51.2c0-127.2448-103.1552-230.4-230.4-230.4s-230.4 103.1552-230.4 230.4h51.2z" fill="#E0B58C" p-id="7165"></path><path d="M332.8 524.8v102.4h51.2v-102.4h-51.2z m-51.2-25.6768c0-14.0928 11.5456-25.5232 25.7152-25.5232h102.1696c14.208 0 25.7152 11.456 25.7152 25.5232v153.7536A25.6384 25.6384 0 0 1 409.4848 678.4H307.328A25.6256 25.6256 0 0 1 281.6 652.8768V499.1232zM640 524.8v102.4h51.2v-102.4h-51.2z m-51.2-25.6768c0-14.0928 11.5456-25.5232 25.7152-25.5232h102.1696c14.208 0 25.7152 11.456 25.7152 25.5232v153.7536A25.6384 25.6384 0 0 1 716.6848 678.4H614.528A25.6256 25.6256 0 0 1 588.8 652.8768V499.1232z" fill="#E0B58C" p-id="7166"></path><path d="M588.8 576a25.6 25.6 0 1 1 51.2 0v102.4256C640 734.9376 594.0864 780.8 537.6 780.8a25.6 25.6 0 1 1 0-51.2c28.224 0 51.2-22.9504 51.2-51.1744V576z" fill="#E0B58C" p-id="7167"></path></svg>