<?xml version="1.0" standalone="no"?><!DOCTYPE svg PUBLIC "-//W3C//DTD SVG 1.1//EN" "http://www.w3.org/Graphics/SVG/1.1/DTD/svg11.dtd"><svg t="1666834049322" class="icon" viewBox="0 0 1024 1024" version="1.1" xmlns="http://www.w3.org/2000/svg" p-id="3377" width="64" height="64" xmlns:xlink="http://www.w3.org/1999/xlink"><path d="M903.872912 0H120.127088A120.127088 120.127088 0 0 0 0 120.127088v783.745824a120.127088 120.127088 0 0 0 120.127088 120.127088h783.745824a120.127088 120.127088 0 0 0 120.127088-120.127088V120.127088A120.127088 120.127088 0 0 0 903.872912 0z m-3.753971 605.640733a166.843177 166.843177 0 0 1-60.480652 39.208147 318.25336 318.25336 0 0 1-96.351935 208.553971 327.846843 327.846843 0 0 1-104.694093 68.822811 333.686354 333.686354 0 0 1-125.132383 25.026476h-5.005296a113.870468 113.870468 0 0 1 2.08554-227.323828h2.919756A113.870468 113.870468 0 0 1 625.661914 834.215886a118.875764 118.875764 0 0 1 0 21.272505 257.772709 257.772709 0 0 0 70.074135-48.801629A247.762118 247.762118 0 0 0 769.981263 625.661914V396.252546a247.762118 247.762118 0 0 0-75.913646-178.5222 265.69776 265.69776 0 0 0-368.723421 0A247.762118 247.762118 0 0 0 250.264766 396.252546v221.901425a34.202851 34.202851 0 0 1-10.010591 24.609369 34.619959 34.619959 0 0 1-24.609368 10.427699H208.553971a171.848473 171.848473 0 0 1-62.983299-308.24277 164.34053 164.34053 0 0 1 41.710794-22.106721A322.42444 322.42444 0 0 1 208.553971 270.285947 319.087576 319.087576 0 0 1 277.376782 166.843177a327.846843 327.846843 0 0 1 104.694094-67.571487 337.440326 337.440326 0 0 1 256.104277 0A330.766599 330.766599 0 0 1 742.869246 166.843177a319.921792 319.921792 0 0 1 70.908351 102.191446 307.825662 307.825662 0 0 1 17.101425 50.887169 171.431365 171.431365 0 0 1 69.239919 284.467617z" fill="#1afa29" p-id="3378"></path></svg>